<svg version="1.1" xmlns="http://www.w3.org/2000/svg" x="0" y="0" viewBox="0 0 266.7 133" enable-background="new 0 0 266.7 133" xml:space="preserve"><defs><filter id="a" filterUnits="userSpaceOnUse" x=".1" y="0" width="266.4" height="133"><feColorMatrix values="1 0 0 0 0 0 1 0 0 0 0 0 1 0 0 0 0 0 1 0"/></filter></defs><mask maskUnits="userSpaceOnUse" x=".1" y="0" width="266.4" height="133" id="b"><path fill="#FFF" filter="url(#a)" d="M266.5 0H.6v133h266V0z"/></mask><g mask="url(#b)"><path fill="#EEF" d="M229.3 25.5a9.4 9.4 0 1 1 0-18.8 9.4 9.4 0 0 1 0 18.8zm0-17.9c-4.6 0-8.4 3.8-8.4 8.4s3.8 8.4 8.4 8.4 8.4-3.8 8.4-8.4-3.8-8.4-8.4-8.4z"/><path fill="#EEF" d="m228.4 19.3-.4-.2-2-2.7c-.2-.2-.1-.5.1-.7.2-.2.5-.1.7.1l1.6 2.1 3.6-5.3c.2-.2.5-.3.7-.1.2.2.3.5.1.7l-4 5.9-.4.2c.1 0 0 0 0 0zM241.2 119.2a3.2 3.2 0 0 1-3.2-3.2c0-1.8 1.4-3.2 3.2-3.2s3.2 1.4 3.2 3.2c0 1.8-1.4 3.2-3.2 3.2zm0-5.3c-1.2 0-2.2 1-2.2 2.2s1 2.2 2.2 2.2 2.2-1 2.2-2.2-1-2.2-2.2-2.2zM228.5 54.8a4 4 0 0 1-3.2-1.5 4.2 4.2 0 0 1 .5-5.8c.2-.2.5-.1.7.1.2.2.1.5-.1.7a3.2 3.2 0 0 0-.4 4.4 3.2 3.2 0 0 0 4.4.4c.2-.2.5-.1.7.1.2.2.1.5-.1.7-.6.6-1.5.9-2.5.9zM175.6 96.3c-1.6 0-3-1.3-3-3s1.3-3 3-3 3 1.3 3 3-1.4 3-3 3zm0-4.9c-1.1 0-2 .9-2 2s.9 2 2 2 2-.9 2-2-.9-2-2-2zM137 30.4a1.9 1.9 0 1 1 0-3.8 1.9 1.9 0 0 1 0 3.8zm0-2.9c-.5 0-.9.4-.9.9s.4.9.9.9.9-.4.9-.9-.4-.9-.9-.9z"/><path fill="#EEF" d="M136.2 33.1h-.4a3 3 0 0 1-2.2-1.2c-.7-.9-.9-2-.6-3 .1-.3.4-.4.6-.3.3.1.4.4.3.6-.2.7-.1 1.5.4 2.1.4.5 1 .8 1.6.9.6.1 1.2-.1 1.7-.5 1-.8 1.2-2.3.4-3.3-.2-.2-.1-.5.1-.7.2-.2.5-.1.7.1 1.1 1.4.9 3.6-.5 4.7a4 4 0 0 1-2.1.6zM185.2 36.7c-1.6 0-3-1.3-3-3s1.3-3 3-3c1.6 0 3 1.3 3 3s-1.4 3-3 3zm0-4.9c-1.1 0-2 .9-2 2s.9 2 2 2 2-.9 2-2-1-2-2-2zM247.5 55.9l19-14.2v-1.2l-.4.3-19.2 14.4a4.6 4.6 0 0 0-.9 6.4l17.9 24c.7.9 1.6 1.5 2.6 1.7v-1c-.7-.2-1.3-.6-1.8-1.3l-17.9-24a3.6 3.6 0 0 1 .7-5.1z"/><path fill="#EEF" d="M256.4 63.8c-1.9 0-3.5-1.6-3.5-3.5s1.6-3.5 3.5-3.5 3.5 1.6 3.5 3.5-1.6 3.5-3.5 3.5zm0-6c-1.4 0-2.5 1.1-2.5 2.5s1.1 2.5 2.5 2.5 2.5-1.1 2.5-2.5-1.2-2.5-2.5-2.5zM266.5 52v1.1l-.3-.2c-.2-.2-.1-.5.1-.7l.2-.2zM266.5 63.6v-1.2l-6.5 4.8c-.4.3-.7.7-.7 1.2-.1.5.1 1 .4 1.4l4.5 6c.4.5.9.8 1.5.8l.8-.2v-1.2l-.3.2-.7.2-.6-.3-4.5-6-.2-.6.3-.6 6-4.5zM136.7 132.7l-2.8-2.8-.3-.1-.4.1-2.8 2.8-.1.3h1.2l2.1-2.1 2.1 2.1h1.2l-.2-.3zM266.2 129.8l-2.8 2.8-.2.3h1.2l2.1-2.1v-1.2l-.3.2zM135.6 0l-2.1 2.1-2.1-2.1h-1.2l.1.3 2.8 2.8.3.2.3-.1 2.8-2.8.2-.3h-1.1zM264.4 0h-1.2l.1.3 2.8 2.8.3.1V2.1l-2-2.1zM108.2 119.2a3.2 3.2 0 0 1-3.2-3.2c0-1.8 1.4-3.2 3.2-3.2 1.8 0 3.2 1.4 3.2 3.2 0 1.8-1.4 3.2-3.2 3.2zm0-5.3c-1.2 0-2.2 1-2.2 2.2s1 2.2 2.2 2.2c1.2 0 2.2-1 2.2-2.2s-1-2.2-2.2-2.2zM107.3 53.4a4 4 0 0 1-3.2-1.5 4.2 4.2 0 0 1 .5-5.8c.2-.2.5-.1.7.1s.1.5-.1.7a3.2 3.2 0 0 0-.4 4.4 3.2 3.2 0 0 0 4.4.4c.2-.2.5-.1.7.1.2.2.1.5-.1.7-.7.6-1.6.9-2.5.9zM143 111.5c-.2 0-.5-.2-.5-.4-.2-1.1.1-2.2.7-3.1s1.6-1.5 2.7-1.7c1.1-.2 2.2.1 3.1.7.9.6 1.5 1.6 1.7 2.7 0 .3-.1.5-.4.6-.3 0-.5-.1-.6-.4a3 3 0 0 0-1.3-2c-.7-.5-1.5-.7-2.3-.5a3 3 0 0 0-2 1.3c-.5.7-.7 1.5-.5 2.3a1 1 0 0 1-.6.5zM42.6 96.3c-1.6 0-3-1.3-3-3s1.3-3 3-3 3 1.3 3 3-1.3 3-3 3zm0-4.9c-1.1 0-2 .9-2 2s.9 2 2 2 2-.9 2-2-.9-2-2-2zM64.4 46.3c-1.6 0-3-1.3-3-3s1.3-3 3-3 3 1.3 3 3-1.4 3-3 3zm0-4.9c-1.1 0-2 .9-2 2s.9 2 2 2 2-.9 2-2-.9-2-2-2zM24.4 65.6l-17.9-24c-.7-1-1.8-1.6-3-1.8-1-.1-2 0-2.9.6v1.2l.1-.1c.6-.5 1.4-.7 2.1-.7h.5c.9.1 1.8.6 2.4 1.4l17.9 24c1.2 1.6.8 3.8-.7 5L3.7 85.6c-.8.6-1.7.8-2.6.7l-.5-.1v1l.4.1h.7c1 0 1.9-.3 2.7-.9L23.5 72c2-1.5 2.4-4.4.9-6.4z"/><path fill="#EEF" d="M5.1 49.9.9 53l-.3.1-.3-.2c-.2-.2-.1-.5.1-.7l.2-.2 4-3c.2-.2.5-.1.7.1.1.3.1.6-.2.8zM14.4 71.7l-.4-.2c-.2-.2-.1-.5.1-.7l4.2-3.2c.2-.2.5-.1.7.1.2.2.1.5-.1.7l-4.2 3.2-.3.1zM15.2 63.1l-4.5-6c-.3-.4-.7-.7-1.2-.7-.5-.1-1 .1-1.4.4L.6 62.4v1.2l8.1-6 .5-.2h.1l.6.3 4.5 6c.3.4.2.9-.2 1.2L.6 75.1v1.2l.3-.2 14-10.5c.7-.5.9-1.7.3-2.5zM3.7 132.7l-2.8-2.8-.3-.1v1.2l2.1 2.1h1.2l-.2-.4zM136.8 132.7l-2.8-2.8-.2-.1h-.4l-.2.1-2.8 2.8-.1.3h1.2l2.1-2.1 2.1 2.1h1.2l-.1-.3z"/><path fill="#EEF" d="m3.7 132.7-2.8-2.8-.3-.1v1.2l2.1 2.1h1.2l-.2-.4zM136.8 132.7l-2.8-2.8-.2-.1h-.4l-.2.1-2.8 2.8-.1.3h1.2l2.1-2.1 2.1 2.1h1.2l-.1-.3zM2.7 0 .6 2.1v1.2l.3-.1L3.7.4l.2-.4H2.7zM135.7 0l-2.1 2.1-2.1-2.1h-1.2l.1.3 2.8 2.8.3.1.4-.1 2.8-2.8.2-.3h-1.2z"/><path fill="#EEF" d="m136.8 132.7-2.8-2.8-.2-.1h-.4l-.2.1-2.8 2.8-.2.3h1.2l2.1-2.1 2.1 2.1h1.2v-.3zM131.5 83.7a6 6 0 0 1-5.7-4.4l-3.6-13.5a6 6 0 0 1 .6-4.5 6 6 0 0 1 3.6-2.8l18.5-4.9a6 6 0 0 1 4.5.6 6 6 0 0 1 2.8 3.6l.8 2.8c.1.3-.1.5-.4.6-.3.1-.5-.1-.6-.4l-.8-2.8a5 5 0 0 0-6.1-3.5l-18.5 4.9a5 5 0 0 0-3.5 6.1l3.6 13.5a5 5 0 0 0 6.1 3.5l10.8-2.9c.3-.1.5.1.6.4.1.3-.1.5-.4.6L133 83.5c-.4.2-1 .2-1.5.2z"/><path fill="#EEF" d="M148 79.5c-.5 0-1.1-.1-1.5-.4a3 3 0 0 1-1.4-1.9l-2.1-7.7c-.2-.8-.1-1.6.3-2.3s1.1-1.2 1.9-1.4l11.4-3a3 3 0 0 1 3.7 2.2l2.1 7.7a3 3 0 0 1-2.2 3.7l-11.4 3-.8.1zm8.7-15.8-11.4 3c-.5.1-1 .5-1.2 1s-.3 1-.2 1.6L146 77c.1.5.5 1 1 1.2.5.3 1 .3 1.6.2l11.4-3a2.1 2.1 0 0 0 1.5-2.5l-2.1-7.7c-.5-1.1-1.6-1.8-2.7-1.5z"/><path fill="#EEF" d="M144.1 71.7c-.2 0-.4-.1-.5-.4-.1-.3.1-.5.4-.6l16.2-4.3c.3-.1.5.1.6.4.1.3-.1.5-.4.6l-16.2 4.3h-.1zM148.5 75.7c-.2 0-.4-.1-.5-.4-.1-.3.1-.5.4-.6l2-.5c.3-.1.5.1.6.4.1.3-.1.5-.4.6l-2 .5h-.1zM143.3 85.2c-.2 0-.4-.1-.5-.4l-1-3.6c-.1-.3.1-.5.4-.6.3-.1.5.1.6.4l1 3.6c.1.3-.1.5-.4.6h-.1z"/><path fill="#EEF" d="M137.7 86.9c-.2 0-.4-.1-.5-.4-.1-.3.1-.5.4-.6l11.9-3.1c.3-.1.5.1.6.4.1.3-.1.5-.4.6l-11.9 3.1h-.1zM22.8 26.9a.5.5 0 0 1-.5-.3l-1.8-5.1c-.1-.3 0-.5.3-.6.3-.1.5 0 .6.3l1.8 5.1c.1.3 0 .5-.3.6h-.1z"/><path fill="#EEF" d="M23 22.8h-.6c-1-.1-1.7-.6-1.9-1.2-.1-.3 0-.5.3-.6.3-.1.5 0 .6.3.1.3.5.5 1.1.6.7.1 1.6 0 2.5-.3 1.8-.6 2.8-1.8 2.6-2.4-.1-.3 0-.5.3-.6.3-.1.5 0 .6.3.5 1.3-.9 2.9-3.2 3.7l-2.3.2z"/><path fill="#EEF" d="M23.9 25.3h-.6c-1-.1-1.7-.6-1.9-1.2-.1-.3 0-.5.3-.6.3-.1.5 0 .6.3.1.3.5.5 1.1.6.7.1 1.6 0 2.5-.3 1.8-.6 2.8-1.8 2.6-2.4-.1-.3 0-.5.3-.6.3-.1.5 0 .6.3.5 1.3-.9 2.9-3.2 3.7l-2.3.2z"/><path fill="#EEF" d="M24.8 27.8c-.6 0-1.1-.1-1.6-.3-.5-.2-.8-.5-.9-.9-.1-.3 0-.5.3-.6.3-.1.5 0 .6.3l.4.4c.7.3 1.9.3 3.1-.2 1.8-.6 2.8-1.8 2.6-2.4-.1-.3 0-.5.3-.6.3-.1.5 0 .6.3.5 1.3-.9 2.9-3.2 3.7-.7.2-1.5.3-2.2.3z"/><path fill="#EEF" d="M29.9 24.5a.5.5 0 0 1-.5-.3L27.6 19c-.1-.3 0-.5.3-.6.3-.1.5 0 .6.3l1.8 5.2c.1.3 0 .5-.3.6h-.1z"/><path fill="#EEF" d="M23 22.8c-1.2 0-2.2-.4-2.5-1.3-.5-1.3.9-2.9 3.2-3.7 2.3-.8 4.3-.5 4.8.8s-.9 2.9-3.2 3.7a5 5 0 0 1-2.3.5zm3.1-4.3a5 5 0 0 0-2 .4c-1.8.6-2.8 1.8-2.6 2.4.2.6 1.8.8 3.5.2 1.8-.6 2.8-1.8 2.6-2.4-.1-.4-.7-.6-1.5-.6z"/><path fill="#EEF" d="M23 22.8c-.6 0-1.1-.1-1.6-.3-.5-.2-.8-.5-.9-.9-.1-.3 0-.5.3-.6.3-.1.5 0 .6.3l.4.4c.7.3 1.9.3 3.1-.2 1.8-.6 2.8-1.8 2.6-2.4-.1-.3 0-.5.3-.6.3-.1.5 0 .6.3.5 1.3-.9 2.9-3.2 3.7-.7.2-1.5.3-2.2.3z"/><path fill="#FFF" d="M22.8 13.2c.8.6.4 2.5-.8 4.1-1.3 1.6-3 2.4-3.8 1.8l4.6-5.9z"/><path fill="#EEF" d="M18.9 19.8c-.4 0-.7-.1-1-.3-.2-.2-.3-.5-.1-.7.2-.2.5-.3.7-.1.2.2.7.1 1.2-.1.6-.3 1.3-.9 1.9-1.6.6-.7 1-1.5 1.1-2.2.1-.6 0-1-.2-1.2-.2-.2-.3-.5-.1-.7.2-.2.5-.3.7-.1.6.4.7 1.2.5 2.2-.2.9-.6 1.8-1.3 2.6s-1.5 1.5-2.3 1.9a2 2 0 0 1-1.1.3z"/><path fill="#FFF" d="m23 13.3 2 1.5c.8.6.4 2.5-.8 4.1-1.3 1.6-3 2.4-3.8 1.8l-2-1.6 4.6-5.8z"/><path fill="#EEF" d="M21 21.5c-.4 0-.7-.1-1-.3l-2-1.6c-.2-.2-.3-.5-.1-.7.2-.2.5-.3.7-.1l2 1.6c.2.2.7.1 1.2-.1.6-.3 1.3-.9 1.9-1.6 1.1-1.5 1.4-3 .9-3.4l-2-1.5c-.2-.2-.3-.5-.1-.7.2-.2.5-.3.7-.1l2 1.5c1.1.8.7 2.9-.8 4.8a8 8 0 0 1-2.3 1.9 2 2 0 0 1-1.1.3z"/><path fill="#FFF" d="M22 17.4c1.3-1.6 1.7-3.5.8-4.1-.8-.6-2.5.2-3.8 1.8s-1.7 3.5-.8 4.1c.9.6 2.6-.2 3.8-1.8z"/><path fill="#EEF" d="M19 19.9c-.4 0-.7-.1-1-.3-1.1-.8-.7-2.9.8-4.8s3.4-2.7 4.5-1.9c1.1.8.7 2.9-.8 4.8-1.2 1.4-2.5 2.2-3.5 2.2zm3.2-6.4c-.7 0-1.8.6-2.7 1.8-1.1 1.5-1.4 3-.9 3.4.5.4 1.9-.2 3.1-1.7 1.1-1.5 1.4-3 .9-3.4l-.4-.1zM198.9 117.6a.5.5 0 0 1-.5-.3l-1.8-5.1c-.1-.3 0-.5.3-.6.3-.1.5 0 .6.3l1.8 5.1c.1.3 0 .5-.3.6h-.1z"/><path fill="#EEF" d="M199.1 113.4c-.6 0-1.1-.1-1.6-.3-.5-.2-.8-.5-.9-.9-.1-.3 0-.5.3-.6.3-.1.5 0 .6.3l.4.4c.7.3 1.9.3 3.1-.2 1.8-.6 2.8-1.8 2.6-2.4-.1-.3 0-.5.3-.6.3-.1.5 0 .6.3.5 1.3-.9 2.9-3.2 3.7-.7.2-1.5.3-2.2.3z"/><path fill="#EEF" d="M200 115.9h-.6c-1-.1-1.7-.6-1.9-1.2-.1-.3 0-.5.3-.6.3-.1.5 0 .6.3.1.3.5.5 1.1.6a5.7 5.7 0 0 0 4.6-1.6c.4-.4.6-.8.5-1.1-.1-.3 0-.5.3-.6.3-.1.5 0 .6.3.2.7 0 1.4-.7 2.1-.6.6-1.5 1.2-2.5 1.5l-2.3.3z"/><path fill="#EEF" d="M200.9 118.5c-.6 0-1.1-.1-1.6-.3-.5-.2-.8-.5-.9-.9-.1-.3 0-.5.3-.6.3-.1.5 0 .6.3l.4.4c.7.3 1.9.3 3.1-.2 1.8-.6 2.8-1.8 2.6-2.4-.1-.3 0-.5.3-.6.3-.1.5 0 .6.3.5 1.3-.9 2.9-3.2 3.7l-2.2.3z"/><path fill="#EEF" d="M206 115.1a.5.5 0 0 1-.5-.3l-1.8-5.2c-.1-.3 0-.5.3-.6.3-.1.5 0 .6.3l1.8 5.2c.1.3 0 .5-.3.6h-.1z"/><path fill="#EEF" d="M199.1 113.4h-.6c-1-.1-1.7-.6-1.9-1.2a2 2 0 0 1 .1-1.3c.4-.9 1.6-1.8 3.1-2.4 1-.4 2.1-.5 2.9-.4 1 .1 1.7.6 1.9 1.2.5 1.3-.9 2.9-3.2 3.7-.7.3-1.5.4-2.3.4zm2.2-.8zm.9-3.5a5 5 0 0 0-2 .4c-1.2.4-2.2 1.2-2.5 1.8l-.1.5c.1.3.5.5 1.1.6.7.1 1.6 0 2.5-.3 1.8-.6 2.8-1.8 2.6-2.4-.1-.3-.5-.5-1.1-.6h-.5z"/><path fill="#EEF" d="M199.1 113.4h-.6c-1-.1-1.7-.6-1.9-1.2-.1-.3 0-.5.3-.6.3-.1.5 0 .6.3.1.3.5.5 1.1.6.7.1 1.6 0 2.5-.3 1.8-.6 2.8-1.8 2.6-2.4-.1-.3 0-.5.3-.6.3-.1.5 0 .6.3.5 1.3-.9 2.9-3.2 3.7l-2.3.2z"/><path fill="#FFF" d="M199 103.9c.8.6.4 2.5-.8 4.1-1.3 1.6-3 2.4-3.8 1.8l4.6-5.9z"/><path fill="#EEF" d="M195 110.5c-.4 0-.7-.1-1-.3-.2-.2-.3-.5-.1-.7.2-.2.5-.3.7-.1.5.4 1.9-.2 3.1-1.7 1.1-1.5 1.4-3 .9-3.4-.2-.2-.3-.5-.1-.7.2-.2.5-.3.7-.1 1.1.8.7 2.9-.8 4.8-1 1.4-2.3 2.2-3.4 2.2z"/><path fill="#FFF" d="m199.1 104 2 1.5c.8.6.4 2.5-.8 4.1-1.3 1.6-3 2.4-3.8 1.8l-2-1.6 4.6-5.8z"/><path fill="#EEF" d="M197.1 112.1c-.4 0-.7-.1-1-.3l-2-1.6c-.2-.2-.3-.5-.1-.7s.5-.3.7-.1l2 1.6c.2.2.7.1 1.2-.1.6-.3 1.3-.9 1.9-1.6 1.1-1.5 1.4-3 .9-3.4l-2-1.5c-.2-.2-.3-.5-.1-.7.2-.2.5-.3.7-.1l2 1.5c1.1.8.7 2.9-.8 4.8-.7.8-1.5 1.5-2.2 1.9l-1.2.3z"/><path fill="#FFF" d="M198.2 108c1.3-1.6 1.7-3.5.8-4.1-.8-.6-2.5.2-3.8 1.8-1.3 1.6-1.7 3.5-.8 4.1.8.6 2.5-.2 3.8-1.8z"/><path fill="#EEF" d="M195.1 110.5c-.4 0-.7-.1-1-.3-.6-.4-.7-1.2-.5-2.2.2-.9.6-1.8 1.3-2.6.7-.8 1.5-1.5 2.2-1.9.9-.4 1.7-.4 2.2 0 1.1.8.7 2.9-.8 4.8-1 1.2-2.2 2.1-3.2 2.2h-.2zm3.2-6.3-.8.2c-.6.3-1.3.9-1.9 1.6-.6.7-1 1.5-1.1 2.2-.1.6 0 1 .2 1.2l.5.1c.8-.1 1.8-.8 2.6-1.8 1.1-1.5 1.4-3 .9-3.4l-.4-.1zm-.1 3.8zM188.9 77.4c-.8-.1-1.4-.5-1.7-1.1-.4-.6-.5-1.2-.4-1.9l2.6-13.7c.1-.6.5-1.2 1-1.6.5-.4 1.2-.5 1.8-.4l12.4 2.3c.6.1 1.2.5 1.6 1 .4.5.5 1.2.4 1.8l-1.8 9.8c-.1.3-.3.4-.6.4-.3-.1-.5-.3-.4-.6l1.8-9.8c.1-.4 0-.8-.2-1.1-.2-.3-.6-.5-.9-.6L192 59.8c-.4-.1-.8 0-1.1.2-.3.2-.5.6-.6.9l-2.6 13.7c-.1.4 0 .8.2 1.2.2.3.6.6 1 .7.3.1.5.3.4.6.1.2-.1.3-.4.3z"/><path fill="#EEF" d="M189.6 77.5h-.5a2.7 2.7 0 0 1-2.2-3.2l.7-3.5c.1-.3.3-.5.6-.4.3.1.5.3.4.6l-.6 3.5c-.2 1 .5 1.9 1.4 2.1 1 .2 1.9-.5 2.1-1.4l.6-3.5c.1-.3.3-.4.6-.4.3.1.5.3.4.6l-.6 3.5a3.1 3.1 0 0 1-2.9 2.1z"/><path fill="#EEF" d="M204 80.2h-.5l-14.7-2.7c-.3-.1-.5-.3-.4-.6.1-.3.3-.4.6-.4l14.7 2.7c1 .2 1.9-.5 2.1-1.4l.6-3-13.5-2.5-.4 2c-.1.3-.3.4-.6.4-.3-.1-.4-.3-.4-.6l.5-2.5c.1-.3.3-.5.6-.4l14.5 2.7.3.2.1.4-.6 3.5a3 3 0 0 1-2.9 2.2zM202.1 65.7 193 64c-.3-.1-.5-.3-.4-.6.1-.3.3-.4.6-.4l9 1.7c.3.1.5.3.4.6 0 .2-.2.4-.5.4zM197.8 68.2l-5.4-1c-.3-.1-.5-.3-.4-.6.1-.3.3-.4.6-.4l5.3 1c.3.1.5.3.4.6 0 .3-.2.4-.5.4zM79.5 71.1a4.7 4.7 0 1 1 4.7-4.7c0 2.6-2 4.7-4.7 4.7zm0-8.5a3.7 3.7 0 1 0 3.7 3.7c.1-2-1.6-3.7-3.7-3.7zM83.1 83.2h-.4l-9.5-.9c-.9-.1-1.7-.6-2.2-1.3a3 3 0 0 1-.4-2.5l.8-1.9a7.6 7.6 0 0 1 7.5-4.4c3.2.3 5.8 2.6 6.5 5.7l.5 1.9a3 3 0 0 1-.8 2.4c-.5.7-1.3 1-2 1zm-.2-1c.5 0 1.1-.2 1.5-.6.4-.4.6-1 .5-1.6l-.5-1.9a6.5 6.5 0 0 0-5.7-4.9 6.5 6.5 0 0 0-6.5 3.8l-.8 1.8c-.1.5-.1 1.1.3 1.6.3.5.8.8 1.4.8l9.8 1zM75.7 129.4l-2.1 3.7h-1.2l2.4-4.2c.4-.8.2-1.7-.6-2.2l-12.4-7.2c-.8-.4-1.7-.2-2.2.6l-7.5 13h-1.2l.4-.6.9-1.5 6.6-11.3c.7-1.2 2.3-1.7 3.5-.9l6.5 3.8.9.5 4.9 2.8c1.4.6 1.9 2.2 1.1 3.5z"/><path fill="#EEF" d="m70.9 116.2-1 6.8v.2c0 .3-.3.5-.6.4-.3 0-.5-.3-.4-.6l.1-.6.9-6.4c.1-.9-.5-1.7-1.3-1.8l-14.2-2c-.9-.1-1.7.5-1.8 1.3L49.9 132l2.2-1.1.2-.1c.2 0 .4.1.5.3.1.2 0 .5-.2.7l-1.1.6-1.2.6h-1.5v-.1l2.8-19.5a2.6 2.6 0 0 1 2.9-2.2l14.2 2.1c1.4.1 2.4 1.4 2.2 2.9z"/><path fill="#EEF" d="m69.1 130.6-.3-.1-7.9-4.6c-.2-.1-.3-.4-.2-.7.1-.2.4-.3.7-.2l7.9 4.6c.2.1.3.4.2.7 0 .2-.2.3-.4.3zM65.3 132.6l-.3-.1-3.5-2.1c-.2-.1-.3-.4-.2-.7.1-.2.4-.3.7-.2l3.5 2.1c.2.1.3.4.2.7-.1.2-.2.3-.4.3zM169.3 0l-7.6 13-.4.8c-.1.2-.4.3-.7.2-.2-.1-.3-.4-.2-.6l2.4-4.2.9-1.5 4.4-7.5h1.2zM187.2 6l-9.9 17-.4.2-.3-.1c-.2-.1-.3-.5-.2-.7l.4-.8 9.5-16.3c.2-.4.3-.8.2-1.2-.1-.4-.4-.8-.7-1L180 0h2l4.3 2.5c.6.4 1 .9 1.2 1.6.1.6 0 1.3-.3 1.9z"/><path fill="#EEF" d="m164 8.5-1.2.6-1.9 1-.2.1-.3-.1c-.2-.1-.2-.3-.2-.5l1.4-9.5h1l-1.3 8.7 2.2-1.1.2-.1c.2 0 .4.1.5.3.1.2.1.5-.2.6zM181.3 0c-.1.2-.3.3-.5.3s-.3-.1-.4-.3h.9zM176.8 23.4a.5.5 0 0 1-.5-.3l-1.4-3.1-3.4.3a.5.5 0 0 1-.5-.3l-1.4-3.1-3.4.3a.5.5 0 0 1-.5-.3l-1.4-3.1-3.4.3c-.3 0-.5-.2-.5-.5s.2-.5.5-.5l3.7-.3c.2 0 .4.1.5.3l1.4 3.1 3.4-.3c.2 0 .4.1.5.3l1.4 3.1 3.4-.3c.2 0 .4.1.5.3l1.6 3.4c.1.2 0 .5-.2.7h-.3zM180.6 7.3l-.3-.1-7.9-4.6c-.2-.1-.3-.4-.2-.7.1-.2.4-.3.7-.2l7.9 4.6c.2.1.3.4.2.7-.1.2-.3.3-.4.3zM176.7 9.3l-.3-.1-3.5-2.1c-.2-.1-.3-.4-.2-.7.1-.2.4-.3.7-.2l3.5 2.1c.2.1.3.4.2.7 0 .2-.2.3-.4.3zM88.1 31.5c-1.3 0-2.5-.7-3.1-2l-4.9-10.7c-.8-1.7 0-3.7 1.6-4.4L93.6 9c1.7-.8 3.7 0 4.4 1.6l4.9 10.7c.8 1.7 0 3.7-1.6 4.4l-11.8 5.4c-.4.3-.9.4-1.4.4zM94 9.9l-11.8 5.4c-.6.3-1 .7-1.2 1.3-.2.6-.2 1.2.1 1.8L86 29.1a2.3 2.3 0 0 0 3.1 1.2l11.8-5.4a2.3 2.3 0 0 0 1.2-3.1l-5-10.8A2.2 2.2 0 0 0 94 9.9z"/><path fill="#EEF" d="M81.6 20.3a.5.5 0 0 1-.5-.3c-.1-.3 0-.5.2-.7l14.4-6.6c.3-.1.5 0 .7.2.1.3 0 .5-.2.7l-14.4 6.6-.2.1zM86.4 23.3l-.4-.1c-.3-.1-.6-.4-.7-.7l-.2-.4c-.3-.6 0-1.4.6-1.7l.4-.2c.6-.3 1.4 0 1.7.6l.2.4c.3.6 0 1.4-.6 1.7l-.4.3-.6.1zm.2-2.1h-.1l-.4.2-.1.4.2.4.1.1h.2l.4-.2c.1-.1.2-.2.1-.3l-.2-.4-.2-.2zm-.3-.4zM91.3 21.1c-.5 0-.9-.3-1.1-.7l-.2-.5c-.3-.6 0-1.4.6-1.7l.4-.2c.6-.3 1.4 0 1.7.6l.2.4c.1.3.2.6 0 1-.1.3-.4.6-.7.7l-.4.2-.5.2zm.2-2.1h-.1l-.4.2c-.1.1-.2.2-.1.3l.2.4c.1.1.2.2.3.1l.4-.2.1-.1v-.2l-.2-.4-.2-.1zm-.3-.4zM95.7 19c-.5 0-.9-.3-1.1-.7l-.2-.4c-.3-.6 0-1.4.6-1.7l.4-.2c.3-.1.6-.2 1 0 .3.1.6.4.7.7l.2.4c.3.6 0 1.4-.6 1.7l-.4.2h-.6zm.2-2.1h-.1l-.4.2c-.1.1-.2.2-.1.3l.2.4c.1.1.2.2.3.1l.4-.2c.1-.1.2-.2.1-.3l-.2-.4-.2-.1c.1.1.1 0 0 0zm-.3-.4zM88.3 27.3c-.5 0-.9-.3-1.1-.7l-.2-.4c-.3-.6 0-1.4.6-1.7l.4-.2c.6-.3 1.4 0 1.7.6l.2.4c.3.6 0 1.4-.6 1.7l-.4.2-.6.1zm.1-2.1-.4.2c-.1.1-.2.2-.1.3l.2.4c.1.1.2.2.3.1l.4-.2c.1-.1.2-.2.1-.3l-.2-.4-.3-.1zM93.1 25.1l-.4-.1c-.3-.1-.6-.3-.7-.7l-.2-.4c-.3-.6 0-1.4.6-1.7l.4-.2c.3-.1.6-.2 1 0 .3.1.6.3.7.7l.2.4c.1.3.2.6 0 1-.1.3-.4.6-.7.7l-.4.2-.5.1zm.2-2.1h-.1l-.4.2c-.1.1-.2.2-.1.3l.2.4.1.1h.2l.4-.2.1-.1v-.2l-.2-.4-.2-.1c.1 0 0 0 0 0zm-.3-.4zM97.6 23c-.5 0-.9-.3-1.1-.7l-.2-.4c-.1-.3-.2-.6 0-1 .1-.3.4-.6.7-.7l.4-.2c.6-.3 1.4 0 1.7.6l.2.4c.3.6 0 1.4-.6 1.7l-.4.2-.7.1zm.1-2-.4.2-.1.1v.2l.2.4c.1.1.2.2.3.1l.4-.2c.1-.1.2-.2.1-.3l-.2-.4c-.1-.1-.2-.2-.3-.1z"/></g></svg>